<?xml version="1.0" encoding="UTF-8" standalone="no"?>
<!-- Created with Inkscape (http://www.inkscape.org/) -->

<svg
   version="1.1"
   id="svg2"
   width="1365.3333"
   height="1365.3333"
   viewBox="0 0 1365.3333 1365.3333"
   sodipodi:docname="AppIcon.svg"
   inkscape:version="1.2.1 (9c6d41e410, 2022-07-14)"
   xmlns:inkscape="http://www.inkscape.org/namespaces/inkscape"
   xmlns:sodipodi="http://sodipodi.sourceforge.net/DTD/sodipodi-0.dtd"
   xmlns="http://www.w3.org/2000/svg"
   xmlns:svg="http://www.w3.org/2000/svg">
  <defs
     id="defs6">
    <clipPath
       clipPathUnits="userSpaceOnUse"
       id="clipPath20">
      <path
         d="M 0,1024 H 1024 V 0 H 0 Z"
         clip-rule="evenodd"
         id="path18" />
    </clipPath>
    <clipPath
       clipPathUnits="userSpaceOnUse"
       id="clipPath30">
      <path
         d="m 378.1743,813.8125 3.3799,-5.6975 3.3799,5.6975 z m 138.639,-233.7057 3.6705,-6.1875 3.5238,6.1875 z m 0.2877,-12.1275 h -7.1943 l 3.6705,-6.1875 z m -278.0002,0 h -7.1942 l 3.5237,-6.1875 z m -10.5771,5.94 3.6706,6.1875 H 225 Z m 138.9297,234.1957 3.3798,5.6975 h -6.7597 z m 17.4807,18.0725 149.5038,-252.0208 10.8648,-18.3149 H 524.0076 225 203.7049 l 10.8648,18.3149 149.5038,252.0208 10.4303,17.5825 z"
         clip-rule="evenodd"
         id="path28" />
    </clipPath>
    <clipPath
       clipPathUnits="userSpaceOnUse"
       id="clipPath40">
      <path
         d="M 191,854 H 558.0076 V 533.9793 H 191 Z M 374.5038,820 524.0076,567.9793 H 225 Z"
         clip-rule="evenodd"
         id="path38" />
    </clipPath>
    <clipPath
       clipPathUnits="userSpaceOnUse"
       id="clipPath52">
      <path
         d="m 498.5101,335.1927 c -85.1109,0 -154.1072,68.9924 -154.1072,154.0992 0,85.1068 68.9963,154.0992 154.1072,154.0992 85.1108,0 154.1071,-68.9924 154.1071,-154.0992 0,-85.1068 -68.9963,-154.0992 -154.1071,-154.0992 z"
         clip-rule="evenodd"
         id="path50" />
    </clipPath>
    <clipPath
       clipPathUnits="userSpaceOnUse"
       id="clipPath62">
      <path
         d="M 322.9529,664.8411 H 674.0672 V 313.7427 H 322.9529 Z M 498.5101,346.7427 c 78.7321,0 142.5571,63.8214 142.5571,142.5492 0,78.7277 -63.825,142.5492 -142.5571,142.5492 -78.7322,0 -142.5572,-63.8215 -142.5572,-142.5492 0,-78.7278 63.825,-142.5492 142.5572,-142.5492 z"
         clip-rule="evenodd"
         id="path60" />
    </clipPath>
    <clipPath
       clipPathUnits="userSpaceOnUse"
       id="clipPath74">
      <path
         d="m 551.9108,465.5424 h 213.8249 c 13.9379,0 25.2368,-11.2988 25.2368,-25.2367 V 226.2643 c 0,-13.9379 -11.2989,-25.2368 -25.2368,-25.2368 H 551.9108 c -13.9379,0 -25.2368,11.2989 -25.2368,25.2368 v 214.0414 c 0,13.9379 11.2989,25.2367 25.2368,25.2367 z"
         clip-rule="evenodd"
         id="path72" />
    </clipPath>
    <clipPath
       clipPathUnits="userSpaceOnUse"
       id="clipPath84">
      <path
         d="M 506.6465,485.5699 H 811 V 181 H 506.6465 Z m 45.2643,-31 h 213.8249 c 7.878,0 14.2643,-6.3863 14.2643,-14.2642 V 226.2643 C 780,218.3863 773.6137,212 765.7357,212 H 551.9108 c -7.878,0 -14.2643,6.3863 -14.2643,14.2643 v 214.0414 c 0,7.8779 6.3863,14.2642 14.2643,14.2642 z"
         clip-rule="evenodd"
         id="path82" />
    </clipPath>
  </defs>
  <sodipodi:namedview
     id="namedview4"
     pagecolor="#ffffff"
     bordercolor="#666666"
     borderopacity="1.0"
     inkscape:showpageshadow="2"
     inkscape:pageopacity="0.0"
     inkscape:pagecheckerboard="0"
     inkscape:deskcolor="#d1d1d1"
     showgrid="false"
     inkscape:zoom="0.17285158"
     inkscape:cx="679.77395"
     inkscape:cy="682.6666"
     inkscape:window-width="951"
     inkscape:window-height="1047"
     inkscape:window-x="0"
     inkscape:window-y="0"
     inkscape:window-maximized="1"
     inkscape:current-layer="g10">
    <inkscape:page
       x="0"
       y="0"
       id="page8"
       width="1365.3333"
       height="1365.3333" />
  </sodipodi:namedview>
  <g
     id="g10"
     inkscape:groupmode="layer"
     inkscape:label="Page 1"
     transform="matrix(1.3333333,0,0,-1.3333333,0,1365.3333)">
    <g
       id="g12" />
    <g
       id="g14">
      <g
         id="g16"
         clip-path="url(#clipPath20)">
        <path
           d="M -5,-5 H 1029 V 1029 H -5 Z"
           style="fill:#016ca5;fill-opacity:1;fill-rule:nonzero;stroke:none"
           id="path22" />
      </g>
    </g>
    <g
       id="g24">
      <g
         id="g26"
         clip-path="url(#clipPath30)">
        <path
           d="M 220,562.9793 H 529.0076 V 825 H 220 Z"
           style="fill:#ffffff;fill-opacity:1;fill-rule:nonzero;stroke:none"
           id="path32" />
      </g>
    </g>
    <g
       id="g34">
      <g
         id="g36"
         clip-path="url(#clipPath40)">
        <g
           id="g42"
           transform="matrix(1,0,0,-1,225,820)">
          <path
             d="M 149.5038,0 299.0076,252.0207 H 0 Z"
             style="fill:none;stroke:#016ca5;stroke-width:48.51;stroke-linecap:butt;stroke-linejoin:miter;stroke-miterlimit:10;stroke-dasharray:none;stroke-opacity:1"
             id="path44" />
        </g>
      </g>
    </g>
    <g
       id="g46">
      <g
         id="g48"
         clip-path="url(#clipPath52)">
        <path
           d="M 350.9529,341.7427 H 646.0672 V 636.8411 H 350.9529 Z"
           style="fill:#ffffff;fill-opacity:1;fill-rule:nonzero;stroke:none"
           id="path54" />
      </g>
    </g>
    <g
       id="g56">
      <g
         id="g58"
         clip-path="url(#clipPath62)">
        <g
           id="g64"
           transform="matrix(1,0,0,-1,355.9529,631.8411)">
          <path
             d="m 142.5571,285.0984 c 78.7322,0 142.5572,-63.8214 142.5572,-142.5492 C 285.1143,63.82146 221.2893,0 142.5571,0 63.82501,0 0,63.82146 0,142.5492 0,221.277 63.82501,285.0984 142.5571,285.0984 Z"
             style="fill:none;stroke:#016ca5;stroke-width:46.2;stroke-linecap:butt;stroke-linejoin:miter;stroke-miterlimit:10;stroke-dasharray:none;stroke-opacity:1"
             id="path66" />
        </g>
      </g>
    </g>
    <g
       id="g68">
      <g
         id="g70"
         clip-path="url(#clipPath74)">
        <path
           d="M 532.6465,207 H 785 V 459.5699 H 532.6465 Z"
           style="fill:#ffffff;fill-opacity:1;fill-rule:nonzero;stroke:none"
           id="path76" />
      </g>
    </g>
    <g
       id="g78">
      <g
         id="g80"
         clip-path="url(#clipPath84)">
        <g
           id="g86"
           transform="matrix(1,0,0,-1,537.6465,454.5699)">
          <path
             d="M 14.26425,0 H 228.0892 c 7.878,0 14.2643,6.386323 14.2643,14.26425 V 228.3057 c 0,7.8779 -6.3863,14.2642 -14.2643,14.2642 H 14.26425 C 6.386323,242.5699 0,236.1836 0,228.3057 V 14.26425 C 0,6.386323 6.386323,0 14.26425,0 Z"
             style="fill:none;stroke:#016ca5;stroke-width:43.89;stroke-linecap:butt;stroke-linejoin:miter;stroke-miterlimit:10;stroke-dasharray:none;stroke-opacity:1"
             id="path88" />
        </g>
      </g>
    </g>
  </g>
</svg>
