<?xml version="1.0" encoding="UTF-8" standalone="no"?>
<!-- Created with Inkscape (http://www.inkscape.org/) -->

<svg
   version="1.1"
   id="svg2"
   width="260"
   height="282.66666"
   viewBox="0 0 260 282.66666"
   sodipodi:docname="icon.svg"
   inkscape:version="1.2.1 (9c6d41e410, 2022-07-14)"
   xmlns:inkscape="http://www.inkscape.org/namespaces/inkscape"
   xmlns:sodipodi="http://sodipodi.sourceforge.net/DTD/sodipodi-0.dtd"
   xmlns="http://www.w3.org/2000/svg"
   xmlns:svg="http://www.w3.org/2000/svg">
  <defs
     id="defs6">
    <clipPath
       clipPathUnits="userSpaceOnUse"
       id="clipPath20">
      <path
         d="m 62.02507,195.0616 1.05169,-1.7671 1.05168,1.7671 z m 43.46213,-73.0279 1.1536,-1.9384 1.1021,1.9384 z m 0.1008,-3.7902 h -2.2557 l 1.1536,-1.9384 z m -87.1774,0 h -2.25569 l 1.10208,-1.9384 z m -3.30853,1.8518 1.15362,1.9384 H 14 Z m 43.56408,73.1992 1.05169,1.7671 h -2.10337 z m 5.46229,5.6439 46.87146,-78.7565 3.4093,-5.7285 H 107.7429 14 7.333709 l 3.409301,5.7285 46.87146,78.7565 3.25699,5.4726 z"
         clip-rule="evenodd"
         id="path18" />
    </clipPath>
    <clipPath
       clipPathUnits="userSpaceOnUse"
       id="clipPath30">
      <path
         d="M -3,214 H 124.7429 V 101.2435 H -3 Z M 60.87146,197 107.7429,118.2435 H 14 Z"
         clip-rule="evenodd"
         id="path28" />
    </clipPath>
    <clipPath
       clipPathUnits="userSpaceOnUse"
       id="clipPath42">
      <path
         d="m 99.7491,45.49741 c -26.6745,0 -48.30326,21.55764 -48.30326,48.1563 0,26.59869 21.62876,48.15629 48.30326,48.15629 26.6745,0 48.3033,-21.5576 48.3033,-48.15629 0,-26.59866 -21.6288,-48.1563 -48.3033,-48.1563 z"
         clip-rule="evenodd"
         id="path40" />
    </clipPath>
    <clipPath
       clipPathUnits="userSpaceOnUse"
       id="clipPath52">
      <path
         d="M 38.05551,155.2003 H 161.4427 V 32.10708 H 38.05551 Z M 99.7491,49.10708 c 24.6836,0 44.6936,19.94421 44.6936,44.54663 0,24.60239 -20.01,44.54659 -44.6936,44.54659 -24.68359,0 -44.69359,-19.9442 -44.69359,-44.54659 0,-24.60242 20.01,-44.54663 44.69359,-44.54663 z"
         clip-rule="evenodd"
         id="path50" />
    </clipPath>
    <clipPath
       clipPathUnits="userSpaceOnUse"
       id="clipPath64">
      <path
         d="m 116.4768,86.2323 h 67.0653 c 4.3559,0 7.8871,-3.53119 7.8871,-7.88714 V 11.45795 c 0,-4.355948 -3.5312,-7.887138 -7.8871,-7.887138 h -67.0653 c -4.3559,0 -7.8871,3.53119 -7.8871,7.887138 v 66.88721 c 0,4.35595 3.5312,7.88714 7.8871,7.88714 z"
         clip-rule="evenodd"
         id="path62" />
    </clipPath>
    <clipPath
       clipPathUnits="userSpaceOnUse"
       id="clipPath74">
      <path
         d="M 96.0189,98.80311 H 204 V -9 H 96.0189 Z m 20.4579,-16 h 67.0653 c 2.462,0 4.4579,-1.99589 4.4579,-4.45795 V 11.45795 C 188,8.99589 186.0041,7 183.5421,7 h -67.0653 c -2.462,0 -4.4579,1.99589 -4.4579,4.45795 v 66.88721 c 0,2.46206 1.9959,4.45795 4.4579,4.45795 z"
         clip-rule="evenodd"
         id="path72" />
    </clipPath>
  </defs>
  <sodipodi:namedview
     id="namedview4"
     pagecolor="#ffffff"
     bordercolor="#666666"
     borderopacity="1.0"
     inkscape:showpageshadow="2"
     inkscape:pageopacity="0.0"
     inkscape:pagecheckerboard="0"
     inkscape:deskcolor="#d1d1d1"
     showgrid="false"
     inkscape:zoom="0.8349057"
     inkscape:cx="129.9548"
     inkscape:cy="141.33333"
     inkscape:window-width="951"
     inkscape:window-height="1047"
     inkscape:window-x="0"
     inkscape:window-y="0"
     inkscape:window-maximized="1"
     inkscape:current-layer="g10">
    <inkscape:page
       x="0"
       y="0"
       id="page8"
       width="260"
       height="282.66666" />
  </sodipodi:namedview>
  <g
     id="g10"
     inkscape:groupmode="layer"
     inkscape:label="Page 1"
     transform="matrix(1.3333333,0,0,-1.3333333,0,282.66667)">
    <g
       id="g12" />
    <g
       id="g14">
      <g
         id="g16"
         clip-path="url(#clipPath20)">
        <path
           d="m 9,113.2435 h 103.7429 v 88.75648 H 9 Z"
           style="fill:#ffffff;fill-opacity:1;fill-rule:nonzero;stroke:none"
           id="path22" />
      </g>
    </g>
    <g
       id="g24">
      <g
         id="g26"
         clip-path="url(#clipPath30)">
        <g
           id="g32"
           transform="matrix(1,0,0,-1,14,197)">
          <path
             d="M 46.87146,0 93.74291,78.75648 H 0 Z"
             style="fill:none;stroke:#016ca5;stroke-width:15.1606;stroke-linecap:butt;stroke-linejoin:miter;stroke-miterlimit:10;stroke-dasharray:none;stroke-opacity:1"
             id="path34" />
        </g>
      </g>
    </g>
    <g
       id="g36">
      <g
         id="g38"
         clip-path="url(#clipPath42)">
        <path
           d="m 50.05551,44.10708 h 99.38718 v 99.09326 H 50.05551 Z"
           style="fill:#ffffff;fill-opacity:1;fill-rule:nonzero;stroke:none"
           id="path44" />
      </g>
    </g>
    <g
       id="g46">
      <g
         id="g48"
         clip-path="url(#clipPath52)">
        <g
           id="g54"
           transform="matrix(1,0,0,-1,55.05551,138.2003)">
          <path
             d="m 44.69359,89.09326 c 24.68359,0 44.69359,-19.9442 44.69359,-44.54663 C 89.38718,19.94421 69.37718,0 44.69359,0 20.01,0 0,19.94421 0,44.54663 0,69.14906 20.01,89.09326 44.69359,89.09326 Z"
             style="fill:none;stroke:#016ca5;stroke-width:14.4387;stroke-linecap:butt;stroke-linejoin:miter;stroke-miterlimit:10;stroke-dasharray:none;stroke-opacity:1"
             id="path56" />
        </g>
      </g>
    </g>
    <g
       id="g58">
      <g
         id="g60"
         clip-path="url(#clipPath64)">
        <path
           d="M 107.0189,2 H 193 v 85.80311 h -85.9811 z"
           style="fill:#ffffff;fill-opacity:1;fill-rule:nonzero;stroke:none"
           id="path66" />
      </g>
    </g>
    <g
       id="g68">
      <g
         id="g70"
         clip-path="url(#clipPath74)">
        <g
           id="g76"
           transform="matrix(1,0,0,-1,112.0189,82.80311)">
          <path
             d="M 4.457945,0 H 71.52315 c 2.46206,0 4.45795,1.99589 4.45795,4.457945 V 71.34516 c 0,2.46206 -1.99589,4.45795 -4.45795,4.45795 H 4.457945 C 1.99589,75.80311 0,73.80722 0,71.34516 V 4.457945 C 0,1.99589 1.99589,0 4.457945,0 Z"
             style="fill:none;stroke:#016ca5;stroke-width:13.7168;stroke-linecap:butt;stroke-linejoin:miter;stroke-miterlimit:10;stroke-dasharray:none;stroke-opacity:1"
             id="path78" />
        </g>
      </g>
    </g>
  </g>
</svg>
